<svg width="300" height="298" viewBox="0 0 300 298" fill="none" xmlns="http://www.w3.org/2000/svg">
<path d="M250 0H50C22.3858 0 0 22.3858 0 50V248C0 275.614 22.3858 298 50 298H250C277.614 298 300 275.614 300 248V50C300 22.3858 277.614 0 250 0Z" fill="white"/>
<path d="M250 0H50C22.3858 0 0 22.3858 0 50V248C0 275.614 22.3858 298 50 298H250C277.614 298 300 275.614 300 248V50C300 22.3858 277.614 0 250 0Z" fill="url(#paint0_linear)"/>
<path d="M65 234V61H125.333C146.232 61 162.084 65.0398 172.889 73.1194C183.694 81.1199 189.096 92.8824 189.096 108.409C189.096 116.884 186.927 124.369 182.589 130.865C178.253 137.281 172.219 141.994 164.49 145.005C173.323 147.223 180.263 151.698 185.31 158.431C190.437 165.164 193 173.402 193 183.146C193 199.779 187.716 212.374 177.148 220.929C166.58 229.485 151.516 233.841 131.957 234H65ZM100.49 158.668V205.364H130.893C139.253 205.364 145.76 203.384 150.412 199.424C155.144 195.383 157.51 189.839 157.51 182.789C157.51 166.947 149.348 158.907 133.022 158.668H100.49ZM100.49 133.479H126.753C144.655 133.162 153.607 125.994 153.607 111.974C153.607 104.131 151.32 98.5072 146.744 95.1004C142.25 91.6158 135.113 89.8723 125.333 89.8723H100.49V133.479Z" fill="white"/>
<path d="M220 217.619C220 212.094 221.781 207.608 225.345 204.165C228.987 200.721 233.518 199 238.942 199C244.442 199 248.975 200.721 252.539 204.165C256.179 207.608 258 212.094 258 217.619C258 223.065 256.219 227.511 252.655 230.954C249.091 234.318 244.52 236 238.942 236C233.441 236 228.909 234.318 225.345 230.954C221.781 227.511 220 223.065 220 217.619Z" fill="white"/>
<defs>
<linearGradient id="paint0_linear" x1="262.5" y1="19.8667" x2="17.3567" y2="299.627" gradientUnits="userSpaceOnUse">
<stop offset="0.00520833" stop-color="#C795DA"/>
<stop offset="0.661458" stop-color="#6E9FE9"/>
<stop offset="1" stop-color="#6FCF97"/>
</linearGradient>
</defs>
</svg>
