<svg width="40" height="40" viewBox="0 0 40 40" fill="none" xmlns="http://www.w3.org/2000/svg">
<path fill-rule="evenodd" clip-rule="evenodd" d="M7.05973 16.2732L10.745 14.4306L13.4657 19.8721L10.1054 29.953C10.4446 30.2029 10.8027 30.4449 11.1771 30.6771C13.4459 26.5925 15.3836 24.9999 19.1662 24.9999C23.369 24.9999 26.9576 27.5805 28.0163 31.1474C28.5706 30.8431 29.0971 30.5162 29.5878 30.1727C28.9515 29.3755 28.4313 28.5128 27.9936 27.5663C27.521 26.5445 27.4009 26.1876 26.7175 23.977C25.7116 20.7231 24.9773 20 21.6663 20H19.9996C17.4125 20 14.9996 17.5871 14.9996 15C14.9996 12.9872 13.4531 11.4546 9.97476 10.4431L7.05973 16.2732ZM9.86683 20.1278L7.47328 27.3085C6.95663 26.5261 6.66631 25.74 6.66631 24.9999H3.33297C3.33297 30.7911 11.9705 36.6666 19.9996 36.6666C28.0287 36.6666 36.6663 30.7911 36.6663 24.9999H33.333C33.333 25.9368 32.8677 26.9476 32.0669 27.931C31.6592 27.3939 31.3173 26.812 31.019 26.167C30.6357 25.3384 30.5325 25.0316 29.9021 22.9925C29.6235 22.0912 29.327 21.2976 28.9911 20.6045C31.2538 19.591 33.4394 19.8517 35.7418 21.3867L37.5908 18.6132C34.0722 16.2674 30.4151 16.0417 26.8699 17.9361C25.6375 17.0601 23.9941 16.6666 21.6663 16.6666H19.9996C19.2534 16.6666 18.3329 15.7462 18.3329 15C18.3329 10.6923 14.9018 7.94739 8.65981 6.699L6.66628 6.30029V9.60652L2.97168 16.9957L6.33719 20.3612L9.25426 18.9027L9.86683 20.1278ZM14.1631 32.165C16.0144 32.8875 18.0323 33.3332 19.9996 33.3332C21.6458 33.3332 23.3273 33.0212 24.917 32.496C24.4531 30.1646 22.0869 28.3332 19.1662 28.3332C16.9971 28.3332 15.8 29.2542 14.1631 32.165Z" fill="#6E9FE9" fill-opacity="0.4"/>
</svg>
