<svg width="50" height="50" viewBox="0 0 50 50" fill="none" xmlns="http://www.w3.org/2000/svg">
<g id="free_breakfast_24px">
<path id="icon/places/free_breakfast_24px" fill-rule="evenodd" clip-rule="evenodd" d="M6.25 6.25H39.5833C41.8958 6.25 43.75 8.10417 43.75 10.4167V16.6667C43.75 18.9583 41.8958 20.8333 39.5833 20.8333H35.4167V27.0833C35.4167 31.6875 31.6875 35.4167 27.0833 35.4167H14.5833C9.97917 35.4167 6.25 31.6875 6.25 27.0833V6.25ZM39.5833 39.5833H6.25V43.75H39.5833V39.5833ZM31.25 27.0833C31.25 29.375 29.375 31.25 27.0833 31.25H14.5833C12.2917 31.25 10.4167 29.375 10.4167 27.0833V10.4167H31.25V27.0833ZM35.4167 16.6667H39.5833V10.4167H35.4167V16.6667Z" fill="#6E9FE9"/>
</g>
</svg>
