<svg width="40" height="40" viewBox="0 0 40 40" fill="none" xmlns="http://www.w3.org/2000/svg">
<path fill-rule="evenodd" clip-rule="evenodd" d="M10.0003 3.33325L30.0003 3.34992C31.8503 3.34992 33.3337 4.81659 33.3337 6.66659V33.3333C33.3337 35.1833 31.8503 36.6666 30.0003 36.6666H10.0003C8.15033 36.6666 6.66699 35.1833 6.66699 33.3333V6.66659C6.66699 4.81659 8.15033 3.33325 10.0003 3.33325ZM10.0005 33.3333H30.0005V6.66659H9.98381L10.0005 33.3333ZM13.3337 8.33325C12.4132 8.33325 11.667 9.07944 11.667 9.99992C11.667 10.9204 12.4132 11.6666 13.3337 11.6666C14.2541 11.6666 15.0003 10.9204 15.0003 9.99992C15.0003 9.07944 14.2541 8.33325 13.3337 8.33325ZM16.667 9.99992C16.667 9.07944 17.4132 8.33325 18.3337 8.33325C19.2541 8.33325 20.0003 9.07944 20.0003 9.99992C20.0003 10.9204 19.2541 11.6666 18.3337 11.6666C17.4132 11.6666 16.667 10.9204 16.667 9.99992ZM20.0003 31.6666C24.6003 31.6666 28.3337 27.9333 28.3337 23.3333C28.3337 18.7333 24.6003 14.9999 20.0003 14.9999C15.4003 14.9999 11.667 18.7333 11.667 23.3333C11.667 27.9333 15.4003 31.6666 20.0003 31.6666ZM23.9334 27.2665C26.1001 25.0998 26.1001 21.5665 23.9334 19.3998L16.0668 27.2665C18.2334 29.4332 21.7668 29.4332 23.9334 27.2665Z" fill="#6E9FE9"/>
</svg>
