<svg width="35" height="35" viewBox="0 0 35 35" fill="none" xmlns="http://www.w3.org/2000/svg">
<path fill-rule="evenodd" clip-rule="evenodd" d="M19.7978 14.4513L33.0395 27.693C33.6228 28.2763 33.6228 29.1951 33.0395 29.7492L29.6853 33.1034C29.1166 33.6722 28.1978 33.6722 27.6291 33.1034L14.3436 19.818C10.9603 21.0867 7.00823 20.3722 4.29573 17.6597C0.941564 14.3201 0.635314 9.08466 3.34781 5.3805L8.93323 10.9659L11.0041 8.90966L5.40406 3.29508C9.12282 0.582579 14.3436 0.888829 17.6978 4.243C20.4541 7.01383 21.1541 11.0388 19.7978 14.4513ZM14.8684 16.2304L28.6642 30.0263L29.9476 28.7284L16.1663 14.9471C16.8372 14.0867 17.2747 13.1242 17.4497 12.0888C17.8142 10.0617 17.2163 7.88878 15.6413 6.31378C14.2559 4.94294 12.433 4.30128 10.6247 4.40336L15.1309 8.90961L8.94758 15.0929L4.44133 10.5867C4.33925 12.395 4.98092 14.2325 6.36633 15.6034C7.883 17.12 9.96842 17.7179 11.9518 17.4263C12.9872 17.2804 13.9788 16.8867 14.8684 16.2304Z" fill="#6E9FE9"/>
</svg>
