<svg width="40" height="40" viewBox="0 0 40 40" fill="none" xmlns="http://www.w3.org/2000/svg">
<path fill-rule="evenodd" clip-rule="evenodd" d="M33.333 11.6667H26.6663V8.33333L23.333 5H16.6663L13.333 8.33333V11.6667H6.66634C4.83301 11.6667 3.33301 13.1667 3.33301 15V23.3333C3.33301 24.5833 3.99967 25.6333 4.99967 26.2167V31.6667C4.99967 33.5167 6.48301 35 8.33301 35H31.6663C33.5163 35 34.9997 33.5167 34.9997 31.6667V26.2C35.983 25.6167 36.6663 24.55 36.6663 23.3333V15C36.6663 13.1667 35.1663 11.6667 33.333 11.6667ZM16.6663 8.33333H23.333V11.6667H16.6663V8.33333ZM33.333 15H6.66634V23.3333H14.9997V18.3333H24.9997V23.3333H33.333V15ZM21.6663 25H18.333V21.6667H21.6663V25ZM8.33301 31.6667H31.6663V26.6667H24.9997V28.3333H14.9997V26.6667H8.33301V31.6667Z" fill="#6E9FE9" fill-opacity="0.4"/>
</svg>
