<svg width="40" height="40" viewBox="0 0 40 40" fill="none" xmlns="http://www.w3.org/2000/svg">
<path d="M34.283 24.7666L36.6663 22.3833L34.283 19.9999L28.333 25.9499L14.0497 11.6666L19.9997 5.71659L17.6163 3.33325L15.233 5.71659L12.8497 3.33325L9.28301 6.89992L6.89967 4.51659L4.51634 6.89992L6.89967 9.28325L3.33301 12.8499L5.71634 15.2333L3.33301 17.6166L5.71634 19.9999L11.6663 14.0499L25.9497 28.3333L19.9997 34.2833L22.383 36.6666L24.7663 34.2833L27.1497 36.6666L30.7163 33.0999L33.0997 35.4833L35.483 33.0999L33.0997 30.7166L36.6663 27.1499L34.283 24.7666Z" fill="#6E9FE9" fill-opacity="0.4"/>
</svg>
