<svg width="32" height="20" viewBox="0 0 32 20" fill="none" xmlns="http://www.w3.org/2000/svg">
<path d="M21.735 0.396484H17.44C17.04 0.396484 16.655 0.546484 16.36 0.816484L11.445 5.31648C11.44 5.32148 11.435 5.33148 11.43 5.33648C10.6 6.11648 10.615 7.36148 11.325 8.13648C11.96 8.83148 13.295 9.01648 14.13 8.27148C14.135 8.26648 14.145 8.26648 14.15 8.26148L18.145 4.60148C18.47 4.30648 18.98 4.32648 19.275 4.65148C19.575 4.97648 19.55 5.48148 19.225 5.78148L17.92 6.97648L25.2 12.8865C25.345 13.0065 25.475 13.1365 25.595 13.2715V3.59648L22.865 0.866484C22.57 0.566484 22.16 0.396484 21.735 0.396484ZM27.2 3.60648V14.8015C27.2 15.6865 27.915 16.4015 28.8 16.4015H32V3.60648H27.2ZM29.6 14.8015C29.16 14.8015 28.8 14.4415 28.8 14.0015C28.8 13.5615 29.16 13.2015 29.6 13.2015C30.04 13.2015 30.4 13.5615 30.4 14.0015C30.4 14.4415 30.04 14.8015 29.6 14.8015ZM0 16.3965H3.2C4.085 16.3965 4.8 15.6815 4.8 14.7965V3.60648H0V16.3965ZM2.4 13.2015C2.84 13.2015 3.2 13.5615 3.2 14.0015C3.2 14.4415 2.84 14.8015 2.4 14.8015C1.96 14.8015 1.6 14.4415 1.6 14.0015C1.6 13.5565 1.96 13.2015 2.4 13.2015ZM24.195 14.1315L16.73 8.07148L15.23 9.44648C13.745 10.8015 11.47 10.6715 10.145 9.22649C8.8 7.75648 8.905 5.48148 10.365 4.14148L14.455 0.396484H10.265C9.84 0.396484 9.435 0.566484 9.135 0.866484L6.4 3.59648V14.7915H7.315L11.84 18.8865C13.21 20.0015 15.225 19.7915 16.34 18.4215L16.35 18.4115L17.245 19.1865C18.04 19.8365 19.215 19.7115 19.86 18.9165L21.43 16.9865L21.7 17.2065C22.385 17.7615 23.395 17.6615 23.95 16.9715L24.425 16.3865C24.985 15.6965 24.88 14.6915 24.195 14.1315Z" fill="white"/>
</svg>
