<svg width="40" height="40" viewBox="0 0 40 40" fill="none" xmlns="http://www.w3.org/2000/svg">
<path fill-rule="evenodd" clip-rule="evenodd" d="M13.75 7.91667C13.75 5.61667 15.6167 3.75 17.9167 3.75C20.2167 3.75 22.0833 5.61667 22.0833 7.91667H28.75C30.5833 7.91667 32.0833 9.41667 32.0833 11.25V17.9167C34.3833 17.9167 36.25 19.7833 36.25 22.0833C36.25 24.3833 34.3833 26.25 32.0833 26.25V32.9167C32.0833 34.75 30.5833 36.25 28.75 36.25H22.4167V35.75C22.4167 33.2667 20.4 31.25 17.9167 31.25C15.4333 31.25 13.4167 33.2667 13.4167 35.75V36.25H7.08333C5.25 36.25 3.75 34.75 3.75 32.9167V26.5833H4.25C6.73333 26.5833 8.75 24.5667 8.75 22.0833C8.75 19.6 6.73333 17.5833 4.25 17.5833H3.76667V11.25C3.76667 9.41667 5.25 7.91667 7.08333 7.91667H13.75ZM18.75 7.91667C18.75 7.45 18.3833 7.08333 17.9167 7.08333C17.45 7.08333 17.0833 7.45 17.0833 7.91667V11.25H7.08333L7.1 14.7833C10.0167 15.9167 12.0833 18.7667 12.0833 22.0833C12.0833 25.4 10 28.25 7.08333 29.3833V32.9167H10.6167C11.75 30 14.6 27.9167 17.9167 27.9167C21.2333 27.9167 24.0833 30 25.2167 32.9167H28.75V22.9167H32.0833C32.55 22.9167 32.9167 22.55 32.9167 22.0833C32.9167 21.6167 32.55 21.25 32.0833 21.25H28.75V11.25H18.75V7.91667Z" fill="#6E9FE9" fill-opacity="0.7"/>
</svg>
