<svg width="24" height="32" viewBox="0 0 24 32" fill="none" xmlns="http://www.w3.org/2000/svg">
<path d="M21 4H16C16 1.79375 14.2063 0 12 0C9.79375 0 8 1.79375 8 4H3C1.34375 4 0 5.34375 0 7V29C0 30.6562 1.34375 32 3 32H21C22.6562 32 24 30.6562 24 29V7C24 5.34375 22.6562 4 21 4ZM12 2.5C12.8313 2.5 13.5 3.16875 13.5 4C13.5 4.83125 12.8313 5.5 12 5.5C11.1687 5.5 10.5 4.83125 10.5 4C10.5 3.16875 11.1687 2.5 12 2.5ZM19.575 16.9875L10.6375 25.85C10.3438 26.1438 9.86875 26.1375 9.575 25.8438L4.4125 20.6375C4.11875 20.3438 4.125 19.8688 4.41875 19.575L6.19375 17.8125C6.4875 17.5187 6.9625 17.525 7.25625 17.8188L10.1313 20.7188L16.7563 14.1438C17.05 13.85 17.525 13.8562 17.8188 14.15L19.5812 15.925C19.875 16.225 19.8688 16.6937 19.575 16.9875Z" fill="black"/>
</svg>
