<svg width="35" height="35" viewBox="0 0 35 35" fill="none" xmlns="http://www.w3.org/2000/svg">
<path fill-rule="evenodd" clip-rule="evenodd" d="M14.5837 17.2771L29.167 14.8466V21.0972C28.3037 20.6627 27.305 20.4167 26.2503 20.4167C23.0815 20.4167 20.417 22.6371 20.417 25.5209C20.417 28.4047 23.0815 30.6251 26.2503 30.6251C29.4192 30.6251 32.0837 28.4047 32.0837 25.5209V2.65356L11.667 6.05634V22.5555C10.8037 22.121 9.80496 21.8751 8.75033 21.8751C5.58148 21.8751 2.91699 24.0955 2.91699 26.9792C2.91699 29.863 5.58148 32.0834 8.75033 32.0834C11.9192 32.0834 14.5837 29.863 14.5837 26.9792V17.2771ZM11.667 26.9792C11.667 28.1225 10.414 29.1667 8.75037 29.1667C7.08672 29.1667 5.8337 28.1225 5.8337 26.9792C5.8337 25.8359 7.08672 24.7917 8.75037 24.7917C10.414 24.7917 11.667 25.8359 11.667 26.9792ZM26.2504 27.7084C27.914 27.7084 29.167 26.6642 29.167 25.5209C29.167 24.3776 27.914 23.3334 26.2504 23.3334C24.5867 23.3334 23.3337 24.3776 23.3337 25.5209C23.3337 26.6642 24.5867 27.7084 26.2504 27.7084ZM14.5837 14.3202V8.52708L29.167 6.09653V11.8896L14.5837 14.3202Z" fill="#6E9FE9" fill-opacity="0.7"/>
</svg>
