<svg width="40" height="40" viewBox="0 0 40 40" fill="none" xmlns="http://www.w3.org/2000/svg">
<path d="M26.6663 10.0001V29.1667C26.6663 32.8501 23.683 35.8334 19.9997 35.8334C16.3163 35.8334 13.333 32.8501 13.333 29.1667V8.33341C13.333 6.03341 15.1997 4.16675 17.4997 4.16675C19.7997 4.16675 21.6663 6.03341 21.6663 8.33341V25.8334C21.6663 26.7501 20.9163 27.5001 19.9997 27.5001C19.083 27.5001 18.333 26.7501 18.333 25.8334V10.0001H15.833V25.8334C15.833 28.1334 17.6997 30.0001 19.9997 30.0001C22.2997 30.0001 24.1663 28.1334 24.1663 25.8334V8.33341C24.1663 4.65008 21.183 1.66675 17.4997 1.66675C13.8163 1.66675 10.833 4.65008 10.833 8.33341V29.1667C10.833 34.2334 14.933 38.3334 19.9997 38.3334C25.0663 38.3334 29.1663 34.2334 29.1663 29.1667V10.0001H26.6663Z" fill="#6E9FE9" fill-opacity="0.7"/>
</svg>
