<svg width="14" height="14" viewBox="0 0 14 14" fill="none" xmlns="http://www.w3.org/2000/svg">
<path d="M13.2813 3.16255L9.4438 7.00005L13.2813 10.8375C13.5688 11.125 13.5688 11.5938 13.2813 11.8875L11.8875 13.2813C11.6 13.5688 11.1313 13.5688 10.8375 13.2813L7.00005 9.4438L3.16255 13.2813C2.87505 13.5688 2.4063 13.5688 2.11255 13.2813L0.718799 11.8875C0.431299 11.6 0.431299 11.1313 0.718799 10.8375L4.5563 7.00005L0.718799 3.16255C0.431299 2.87505 0.431299 2.4063 0.718799 2.11255L2.11255 0.718799C2.40005 0.431299 2.8688 0.431299 3.16255 0.718799L7.00005 4.5563L10.8375 0.718799C11.125 0.431299 11.5938 0.431299 11.8875 0.718799L13.2813 2.11255C13.575 2.40005 13.575 2.8688 13.2813 3.16255Z" fill="white"/>
</svg>
