<svg width="40" height="35" viewBox="0 0 40 35" fill="none" xmlns="http://www.w3.org/2000/svg">
<g id="print_24px">
<path id="icon/action/print_24px" fill-rule="evenodd" clip-rule="evenodd" d="M31.6663 11.6667H29.9997V4.375H9.99967V11.6667H8.33301C5.56634 11.6667 3.33301 13.6208 3.33301 16.0417V24.7917H9.99967V30.625H29.9997V24.7917H36.6663V16.0417C36.6663 13.6208 34.433 11.6667 31.6663 11.6667ZM13.333 7.29168H26.6663V11.6667H13.333V7.29168ZM26.6663 27.7083V24.7917V21.875H13.333V27.7083H26.6663ZM29.9996 21.875V18.9583H9.99961V21.875H6.66628V16.0417C6.66628 15.2396 7.41628 14.5833 8.33294 14.5833H31.6663C32.5829 14.5833 33.3329 15.2396 33.3329 16.0417V21.875H29.9996ZM28.333 16.7708C28.333 15.9654 29.0792 15.3125 29.9997 15.3125C30.9201 15.3125 31.6663 15.9654 31.6663 16.7708C31.6663 17.5762 30.9201 18.2292 29.9997 18.2292C29.0792 18.2292 28.333 17.5762 28.333 16.7708Z" fill="#6E9FE9"/>
</g>
</svg>
