<svg width="50" height="50" viewBox="0 0 50 50" fill="none" xmlns="http://www.w3.org/2000/svg">
<g id="local_florist_24px">
<path id="icon/maps/local_florist_24px" fill-rule="evenodd" clip-rule="evenodd" d="M18.0414 28.2708C18.3539 28.2708 18.6456 28.25 18.9372 28.2083C19.9164 30.6042 22.2706 32.2917 24.9997 32.2917C27.7289 32.2917 30.0831 30.6042 31.0622 28.2083C31.3539 28.25 31.6664 28.2708 31.9581 28.2708C35.5622 28.2708 38.4997 25.3333 38.4997 21.7292C38.4997 20.25 37.9789 18.8333 37.1039 17.7083C37.9997 16.5833 38.4997 15.1667 38.4997 13.6875C38.4997 10.0833 35.5622 7.14583 31.9581 7.14583C31.6456 7.14583 31.3539 7.16667 31.0622 7.20833C30.0831 4.8125 27.7289 3.125 24.9997 3.125C22.2706 3.125 19.9164 4.8125 18.9372 7.20833C18.6456 7.16667 18.3331 7.14583 18.0414 7.14583C14.4372 7.14583 11.4997 10.0833 11.4997 13.6875C11.4997 15.1667 12.0206 16.5833 12.8956 17.7083C11.9997 18.8333 11.4789 20.25 11.4789 21.7292C11.4789 25.3333 14.4164 28.2708 18.0414 28.2708ZM25.0004 28.1251C23.7087 28.1251 22.667 27.1042 22.6254 25.8334L22.8754 23.5626C23.542 23.8126 24.2504 23.9584 25.0004 23.9584C25.7504 23.9584 26.4795 23.8126 27.1462 23.5626L27.3754 25.8334C27.3337 27.1042 26.292 28.1251 25.0004 28.1251ZM30.6246 23.6875C30.9996 23.9583 31.458 24.1041 31.958 24.1041C33.2705 24.1041 34.3538 23.0416 34.3538 21.7083C34.3538 20.7916 33.8121 19.9583 32.9788 19.5625L31.1455 18.6875C30.8955 20.2291 30.083 21.5625 28.9371 22.5L30.6246 23.6875ZM30.6043 11.7292C31.021 11.4584 31.4793 11.3126 31.9585 11.3126C33.271 11.3126 34.3335 12.3751 34.3335 13.6876C34.3335 14.6042 33.8126 15.4167 32.9585 15.8334L31.1251 16.7084C30.8751 15.1667 30.0626 13.8334 28.896 12.8959L30.6043 11.7292ZM27.3754 9.58333C27.3337 8.3125 26.292 7.29167 25.0004 7.29167C23.7087 7.29167 22.667 8.3125 22.6254 9.58333L22.8754 11.8542C23.542 11.6042 24.2504 11.4583 25.0004 11.4583C25.7504 11.4583 26.4795 11.6042 27.1462 11.8542L27.3754 9.58333ZM18.0414 11.3126C18.5414 11.3126 18.9997 11.4584 19.3747 11.7292L21.0622 12.8959C19.9164 13.8334 19.1039 15.1667 18.8539 16.7084L17.0206 15.8334C16.1872 15.4167 15.6456 14.6042 15.6456 13.6876C15.6456 12.3751 16.7289 11.3126 18.0414 11.3126ZM18.854 18.7083L17.0206 19.5833C16.1873 20 15.6456 20.8125 15.6665 21.7083C15.6665 23.0208 16.729 24.0833 18.0415 24.0833C18.5206 24.0833 18.979 23.9375 19.3956 23.6666L21.0831 22.5208C19.9165 21.5833 19.104 20.25 18.854 18.7083ZM25 46.875C35.3542 46.875 43.75 38.4792 43.75 28.125C33.3958 28.125 25 36.5208 25 46.875ZM30.0838 41.7916C31.563 37.8333 34.7088 34.6666 38.6671 33.2083C37.188 37.1666 34.0421 40.3124 30.0838 41.7916ZM6.25 28.125C6.25 38.4792 14.6458 46.875 25 46.875C25 36.5208 16.6042 28.125 6.25 28.125ZM11.3338 33.2083C15.2921 34.6874 18.4588 37.8333 19.9171 41.7916C15.9588 40.3124 12.813 37.1666 11.3338 33.2083Z" fill="#C195DB"/>
</g>
</svg>
