<svg width="35" height="35" viewBox="0 0 35 35" fill="none" xmlns="http://www.w3.org/2000/svg">
<path fill-rule="evenodd" clip-rule="evenodd" d="M27.7083 4.375H7.29167C5.6875 4.375 4.375 5.6875 4.375 7.29167V27.7083C4.375 29.3125 5.6875 30.625 7.29167 30.625H27.7083C29.3125 30.625 30.625 29.3125 30.625 27.7083V7.29167C30.625 5.6875 29.3125 4.375 27.7083 4.375ZM27.7083 7.29167V27.7083H7.29167V7.29167H27.7083ZM8.75 24.0625C8.75 22.8544 9.72938 21.875 10.9375 21.875C12.1456 21.875 13.125 22.8544 13.125 24.0625C13.125 25.2706 12.1456 26.25 10.9375 26.25C9.72938 26.25 8.75 25.2706 8.75 24.0625ZM10.9375 8.75C9.72938 8.75 8.75 9.72938 8.75 10.9375C8.75 12.1456 9.72938 13.125 10.9375 13.125C12.1456 13.125 13.125 12.1456 13.125 10.9375C13.125 9.72938 12.1456 8.75 10.9375 8.75ZM15.3125 17.5C15.3125 16.2919 16.2919 15.3125 17.5 15.3125C18.7081 15.3125 19.6875 16.2919 19.6875 17.5C19.6875 18.7081 18.7081 19.6875 17.5 19.6875C16.2919 19.6875 15.3125 18.7081 15.3125 17.5ZM24.0625 21.875C22.8544 21.875 21.875 22.8544 21.875 24.0625C21.875 25.2706 22.8544 26.25 24.0625 26.25C25.2706 26.25 26.25 25.2706 26.25 24.0625C26.25 22.8544 25.2706 21.875 24.0625 21.875ZM21.875 10.9375C21.875 9.72938 22.8544 8.75 24.0625 8.75C25.2706 8.75 26.25 9.72938 26.25 10.9375C26.25 12.1456 25.2706 13.125 24.0625 13.125C22.8544 13.125 21.875 12.1456 21.875 10.9375Z" fill="#6E9FE9"/>
</svg>
