<svg width="35" height="35" viewBox="0 0 35 35" fill="none" xmlns="http://www.w3.org/2000/svg">
<path fill-rule="evenodd" clip-rule="evenodd" d="M13.4062 11.6667H29.167C30.7778 11.6667 32.0837 12.9725 32.0837 14.5834V29.1667C32.0837 30.7775 30.7778 32.0834 29.167 32.0834H5.83366C4.22283 32.0834 2.91699 30.7775 2.91699 29.1667V14.5834C2.91699 13.0827 4.05035 11.8467 5.50782 11.6847L27.167 3.021L28.2503 5.72905L13.4062 11.6667ZM5.83366 14.5834V29.1667H29.167V14.5834H5.83366ZM20.417 21.875V24.7917H27.7087V21.875H20.417ZM20.417 20.4167V17.5H27.7087V20.4167H20.417ZM7.29199 21.875C7.29199 25.0967 9.90366 27.7084 13.1253 27.7084C16.347 27.7084 18.9587 25.0967 18.9587 21.875C18.9587 18.6534 16.347 16.0417 13.1253 16.0417C9.90366 16.0417 7.29199 18.6534 7.29199 21.875ZM13.1253 24.7917C14.7362 24.7917 16.042 23.4858 16.042 21.875C16.042 20.2642 14.7362 18.9584 13.1253 18.9584C11.5145 18.9584 10.2087 20.2642 10.2087 21.875C10.2087 23.4858 11.5145 24.7917 13.1253 24.7917ZM11.667 21.875C11.667 22.6804 12.3199 23.3334 13.1253 23.3334C13.9307 23.3334 14.5837 22.6804 14.5837 21.875C14.5837 21.0696 13.9307 20.4167 13.1253 20.4167C12.3199 20.4167 11.667 21.0696 11.667 21.875Z" fill="#6E9FE9"/>
</svg>
