<svg width="50" height="50" viewBox="0 0 50 50" fill="none" xmlns="http://www.w3.org/2000/svg">
<g id="thumb_up_alt_24px">
<path id="icon/social/thumb_up_alt_24px" fill-rule="evenodd" clip-rule="evenodd" d="M43.7497 18.75H30.6038L32.583 9.22919L32.6455 8.56252C32.6455 7.70835 32.2913 6.91669 31.7288 6.35419L29.5205 4.16669L15.8122 17.8959C15.0413 18.6459 14.583 19.6875 14.583 20.8334V41.6667C14.583 43.9584 16.458 45.8334 18.7497 45.8334H37.4997C39.2288 45.8334 40.708 44.7917 41.333 43.2917L47.6247 28.6042C47.8122 28.125 47.9163 27.625 47.9163 27.0834V22.9167C47.9163 20.625 46.0413 18.75 43.7497 18.75ZM43.7497 27.0834L37.4997 41.6667H18.7497V20.8334L27.7913 11.7917L25.4788 22.9167H43.7497V27.0834ZM10.4163 20.8334H2.08301V45.8334H10.4163V20.8334Z" fill="#A599E0"/>
</g>
</svg>
