<svg width="35" height="35" viewBox="0 0 35 35" fill="none" xmlns="http://www.w3.org/2000/svg">
<path fill-rule="evenodd" clip-rule="evenodd" d="M25.5208 5.46867C25.5208 7.07283 24.2083 8.38533 22.6042 8.38533C21 8.38533 19.6875 7.07283 19.6875 5.46867C19.6875 3.8645 21 2.552 22.6042 2.552C24.2083 2.552 25.5208 3.8645 25.5208 5.46867ZM0 25.1562C0 21.0728 3.20833 17.8645 7.29167 17.8645C11.375 17.8645 14.5833 21.0728 14.5833 25.1562C14.5833 29.2395 11.375 32.4478 7.29167 32.4478C3.20833 32.4478 0 29.2395 0 25.1562ZM7.29167 30.2603C4.52083 30.2603 2.1875 27.927 2.1875 25.1562C2.1875 22.3853 4.52083 20.052 7.29167 20.052C10.0625 20.052 12.3958 22.3853 12.3958 25.1562C12.3958 27.927 10.0625 30.2603 7.29167 30.2603ZM27.8543 16.4062C24.7918 16.4062 22.3126 15.2395 20.4168 13.3437L19.2501 12.177L15.7501 15.677L18.9585 19.0312V28.0728H16.0418V20.7812L11.3751 16.6978C10.7918 16.2603 10.5001 15.5312 10.5001 14.6562C10.5001 13.927 10.7918 13.1978 11.3751 12.6145L15.4585 8.53118C15.896 7.94785 16.6251 7.65618 17.5001 7.65618C18.3751 7.65618 19.1043 7.94785 19.8335 8.53118L22.6043 11.302C23.9168 12.6145 25.6668 13.4895 27.8543 13.4895V16.4062ZM27.7084 17.8645C23.625 17.8645 20.4167 21.0728 20.4167 25.1562C20.4167 29.2395 23.625 32.4478 27.7084 32.4478C31.7917 32.4478 35 29.2395 35 25.1562C35 21.0728 31.7917 17.8645 27.7084 17.8645ZM22.6042 25.1562C22.6042 27.927 24.9375 30.2603 27.7084 30.2603C30.4792 30.2603 32.8125 27.927 32.8125 25.1562C32.8125 22.3853 30.4792 20.052 27.7084 20.052C24.9375 20.052 22.6042 22.3853 22.6042 25.1562Z" fill="#6E9FE9"/>
</svg>
