<svg width="32" height="26" viewBox="0 0 32 26" fill="none" xmlns="http://www.w3.org/2000/svg">
<path d="M31.2 10.4H28V7.2C28 6.76 27.64 6.4 27.2 6.4H25.6C25.16 6.4 24.8 6.76 24.8 7.2V10.4H21.6C21.16 10.4 20.8 10.76 20.8 11.2V12.8C20.8 13.24 21.16 13.6 21.6 13.6H24.8V16.8C24.8 17.24 25.16 17.6 25.6 17.6H27.2C27.64 17.6 28 17.24 28 16.8V13.6H31.2C31.64 13.6 32 13.24 32 12.8V11.2C32 10.76 31.64 10.4 31.2 10.4ZM11.2 12.8C14.735 12.8 17.6 9.935 17.6 6.4C17.6 2.865 14.735 0 11.2 0C7.665 0 4.8 2.865 4.8 6.4C4.8 9.935 7.665 12.8 11.2 12.8ZM15.68 14.4H14.845C13.735 14.91 12.5 15.2 11.2 15.2C9.9 15.2 8.67 14.91 7.555 14.4H6.72C3.01 14.4 0 17.41 0 21.12V23.2C0 24.525 1.075 25.6 2.4 25.6H20C21.325 25.6 22.4 24.525 22.4 23.2V21.12C22.4 17.41 19.39 14.4 15.68 14.4Z" fill="white"/>
</svg>
