<svg width="35" height="35" viewBox="0 0 35 35" fill="none" xmlns="http://www.w3.org/2000/svg">
<path fill-rule="evenodd" clip-rule="evenodd" d="M29.1663 11.6666H24.7913V5.83325H4.37467C2.77051 5.83325 1.45801 7.14575 1.45801 8.74992V24.7916H4.37467C4.37467 27.2124 6.32884 29.1666 8.74967 29.1666C11.1705 29.1666 13.1247 27.2124 13.1247 24.7916H21.8747C21.8747 27.2124 23.8288 29.1666 26.2497 29.1666C28.6705 29.1666 30.6247 27.2124 30.6247 24.7916H33.5413V17.4999L29.1663 11.6666ZM28.4372 13.8541L31.2955 17.4999H24.7913V13.8541H28.4372ZM7.29134 24.7916C7.29134 25.5937 7.94759 26.2499 8.74967 26.2499C9.55176 26.2499 10.208 25.5937 10.208 24.7916C10.208 23.9895 9.55176 23.3333 8.74967 23.3333C7.94759 23.3333 7.29134 23.9895 7.29134 24.7916ZM11.9872 21.8749C11.1851 20.9853 10.0476 20.4166 8.74967 20.4166C7.45176 20.4166 6.31426 20.9853 5.51217 21.8749H4.37467V8.74992H21.8747V21.8749H11.9872ZM24.7913 24.7916C24.7913 25.5937 25.4476 26.2499 26.2497 26.2499C27.0518 26.2499 27.708 25.5937 27.708 24.7916C27.708 23.9895 27.0518 23.3333 26.2497 23.3333C25.4476 23.3333 24.7913 23.9895 24.7913 24.7916Z" fill="#6E9FE9" fill-opacity="0.7"/>
</svg>
