<svg width="35" height="35" viewBox="0 0 35 35" fill="none" xmlns="http://www.w3.org/2000/svg">
<path fill-rule="evenodd" clip-rule="evenodd" d="M30.1441 11.6522H32.0837C32.0691 6.82508 28.1608 2.91675 23.3337 2.91675V4.85633C27.0962 4.85633 30.1295 7.88966 30.1441 11.6522ZM29.167 13.1251V29.1668H5.83366V11.6668H11.7399L14.4087 8.75009H21.8753V5.83343H13.1253L10.4566 8.75009H5.83366C4.22949 8.75009 2.91699 10.0626 2.91699 11.6668V29.1668C2.91699 30.7709 4.22949 32.0834 5.83366 32.0834H29.167C30.7712 32.0834 32.0837 30.7709 32.0837 29.1668V13.1251H29.167ZM28.1899 11.6521H26.2504C26.2358 10.048 24.9524 8.75004 23.3337 8.75004V6.81045C26.017 6.81045 28.1754 8.96879 28.1899 11.6521ZM10.2087 20.4167C10.2087 24.4417 13.4754 27.7084 17.5004 27.7084C21.5254 27.7084 24.792 24.4417 24.792 20.4167C24.792 16.3917 21.5254 13.1251 17.5004 13.1251C13.4754 13.1251 10.2087 16.3917 10.2087 20.4167ZM17.5003 24.7917C19.9065 24.7917 21.8753 22.823 21.8753 20.4167C21.8753 17.9959 19.9065 16.0417 17.5003 16.0417C15.094 16.0417 13.1253 18.0105 13.1253 20.4167C13.1253 22.823 15.094 24.7917 17.5003 24.7917Z" fill="#6E9FE9" fill-opacity="0.7"/>
</svg>
