<svg width="157" height="37" viewBox="0 0 157 37" fill="none" xmlns="http://www.w3.org/2000/svg">
<path d="M23.5 23.5547C23.5 27.6172 22.6328 30.7891 20.8984 33.0703C19.1641 35.3359 16.7422 36.4688 13.6328 36.4688C10.8828 36.4688 8.6875 35.4141 7.04688 33.3047L6.74219 36H0.648438V0H7.42188V12.9141C8.98438 11.0859 11.0391 10.1719 13.5859 10.1719C16.6797 10.1719 19.1016 11.3125 20.8516 13.5938C22.6172 15.8594 23.5 19.0547 23.5 23.1797V23.5547ZM16.7266 23.0625C16.7266 20.5 16.3203 18.6328 15.5078 17.4609C14.6953 16.2734 13.4844 15.6797 11.875 15.6797C9.71875 15.6797 8.23438 16.5625 7.42188 18.3281V28.3359C8.25 30.1172 9.75 31.0078 11.9219 31.0078C14.1094 31.0078 15.5469 29.9297 16.2344 27.7734C16.5625 26.7422 16.7266 25.1719 16.7266 23.0625ZM26.6406 23.0859C26.6406 20.5703 27.125 18.3281 28.0938 16.3594C29.0625 14.3906 30.4531 12.8672 32.2656 11.7891C34.0938 10.7109 36.2109 10.1719 38.6172 10.1719C42.0391 10.1719 44.8281 11.2188 46.9844 13.3125C49.1562 15.4062 50.3672 18.25 50.6172 21.8438L50.6641 23.5781C50.6641 27.4688 49.5781 30.5938 47.4062 32.9531C45.2344 35.2969 42.3203 36.4688 38.6641 36.4688C35.0078 36.4688 32.0859 35.2969 29.8984 32.9531C27.7266 30.6094 26.6406 27.4219 26.6406 23.3906V23.0859ZM33.4141 23.5781C33.4141 25.9844 33.8672 27.8281 34.7734 29.1094C35.6797 30.375 36.9766 31.0078 38.6641 31.0078C40.3047 31.0078 41.5859 30.3828 42.5078 29.1328C43.4297 27.8672 43.8906 25.8516 43.8906 23.0859C43.8906 20.7266 43.4297 18.8984 42.5078 17.6016C41.5859 16.3047 40.2891 15.6562 38.6172 15.6562C36.9609 15.6562 35.6797 16.3047 34.7734 17.6016C33.8672 18.8828 33.4141 20.875 33.4141 23.5781ZM69.0859 16.9922C68.1641 16.8672 67.3516 16.8047 66.6484 16.8047C64.0859 16.8047 62.4062 17.6719 61.6094 19.4062V36H54.8359V10.6406H61.2344L61.4219 13.6641C62.7812 11.3359 64.6641 10.1719 67.0703 10.1719C67.8203 10.1719 68.5234 10.2734 69.1797 10.4766L69.0859 16.9922ZM86.6172 16.9922C85.6953 16.8672 84.8828 16.8047 84.1797 16.8047C81.6172 16.8047 79.9375 17.6719 79.1406 19.4062V36H72.3672V10.6406H78.7656L78.9531 13.6641C80.3125 11.3359 82.1953 10.1719 84.6016 10.1719C85.3516 10.1719 86.0547 10.2734 86.7109 10.4766L86.6172 16.9922ZM88 23.0859C88 20.5703 88.4844 18.3281 89.4531 16.3594C90.4219 14.3906 91.8125 12.8672 93.625 11.7891C95.4531 10.7109 97.5703 10.1719 99.9766 10.1719C103.398 10.1719 106.188 11.2188 108.344 13.3125C110.516 15.4062 111.727 18.25 111.977 21.8438L112.023 23.5781C112.023 27.4688 110.938 30.5938 108.766 32.9531C106.594 35.2969 103.68 36.4688 100.023 36.4688C96.3672 36.4688 93.4453 35.2969 91.2578 32.9531C89.0859 30.6094 88 27.4219 88 23.3906V23.0859ZM94.7734 23.5781C94.7734 25.9844 95.2266 27.8281 96.1328 29.1094C97.0391 30.375 98.3359 31.0078 100.023 31.0078C101.664 31.0078 102.945 30.3828 103.867 29.1328C104.789 27.8672 105.25 25.8516 105.25 23.0859C105.25 20.7266 104.789 18.8984 103.867 17.6016C102.945 16.3047 101.648 15.6562 99.9766 15.6562C98.3203 15.6562 97.0391 16.3047 96.1328 17.6016C95.2266 18.8828 94.7734 20.875 94.7734 23.5781ZM138.25 26.7891L141.578 10.6406H148.117L141.648 36H135.977L131.172 20.0391L126.367 36H120.719L114.25 10.6406H120.789L124.094 26.7656L128.734 10.6406H133.633L138.25 26.7891ZM148.938 32.6719C148.938 31.5938 149.297 30.7188 150.016 30.0469C150.75 29.375 151.664 29.0391 152.758 29.0391C153.867 29.0391 154.781 29.375 155.5 30.0469C156.234 30.7188 156.602 31.5938 156.602 32.6719C156.602 33.7344 156.242 34.6016 155.523 35.2734C154.805 35.9297 153.883 36.2578 152.758 36.2578C151.648 36.2578 150.734 35.9297 150.016 35.2734C149.297 34.6016 148.938 33.7344 148.938 32.6719Z" fill="url(#paint0_linear)"/>
<defs>
<linearGradient id="paint0_linear" x1="-32.3642" y1="8.99999" x2="190.56" y2="12.7934" gradientUnits="userSpaceOnUse">
<stop offset="0.015625" stop-color="#F24E1E"/>
<stop offset="0.338542" stop-color="#CE93D8"/>
<stop offset="0.703125" stop-color="#6E9FE9"/>
<stop offset="0.973958" stop-color="#6FCF97"/>
</linearGradient>
</defs>
</svg>
